<?xml version="1.0" standalone="no"?>
<!DOCTYPE svg PUBLIC "-//W3C//DTD SVG 20010904//EN"
 "http://www.w3.org/TR/2001/REC-SVG-20010904/DTD/svg10.dtd">
<svg version="1.0" xmlns="http://www.w3.org/2000/svg"
 width="400.000000pt" height="400.000000pt" viewBox="0 0 400.000000 400.000000"
 preserveAspectRatio="xMidYMid meet">
<metadata>
Created by potrace 1.11, written by Peter Selinger 2001-2013
</metadata>
<g transform="translate(0.000000,400.000000) scale(0.100000,-0.100000)"
fill="#000000" stroke="none">
<path d="M1815 3994 c-393 -43 -777 -201 -1071 -440 -113 -92 -259 -243 -344
-356 -67 -89 -150 -221 -150 -238 0 -6 548 -11 1568 -13 l1567 -2 -1577 0
c-867 0 -1574 -2 -1572 -4 2 -2 -3 -13 -13 -23 -9 -10 -12 -18 -8 -18 4 0 0
-9 -10 -20 -10 -11 -15 -20 -11 -20 4 0 -2 -13 -14 -30 -12 -16 -18 -30 -14
-30 3 0 2 -6 -4 -12 -6 -7 -11 -16 -11 -20 -1 -4 -10 -28 -21 -54 -11 -25 -18
-50 -15 -54 3 -5 1 -11 -5 -15 -5 -3 -10 -13 -10 -21 0 -12 89 -14 618 -17
l617 -2 -622 -3 -622 -2 -10 -37 c-60 -223 -75 -340 -76 -563 0 -215 14 -324
65 -519 47 -180 142 -398 221 -508 l30 -43 164 0 c102 0 165 4 168 10 3 6 4 5
3 -2 -2 -10 -46 -14 -170 -18 l-167 -5 42 -60 c155 -223 385 -435 616 -571
217 -128 427 -206 688 -256 174 -32 496 -32 670 0 412 79 751 248 1038 521
326 310 528 693 604 1150 24 147 24 455 0 602 -145 866 -775 1509 -1637 1669
-112 21 -422 35 -525 24z m1890 -1134 c3 -6 -1 -7 -9 -4 -18 7 -21 14 -7 14 6
0 13 -4 16 -10z m-782 -257 c-172 -2 -454 -2 -626 0 -171 1 -31 2 313 2 344 0
484 -1 313 -2z m-936 -150 c-2 -16 -4 -5 -4 22 0 28 2 40 4 28 2 -13 2 -35 0
-50z m-1069 -50 c-53 -2 -143 -2 -200 0 -57 1 -13 3 97 3 110 0 156 -2 103 -3z
m609 -60 c-2 -16 -4 -5 -4 22 0 28 2 40 4 28 2 -13 2 -35 0 -50z m1233 60
c-158 -7 -330 -7 -330 0 0 4 89 6 198 5 108 -1 168 -3 132 -5z m667 -55 c-2
-13 -4 -3 -4 22 0 25 2 35 4 23 2 -13 2 -33 0 -45z m-1450 0 c-3 -8 -6 -5 -6
6 -1 11 2 17 5 13 3 -3 4 -12 1 -19z m440 -20 c-3 -8 -6 -5 -6 6 -1 11 2 17 5
13 3 -3 4 -12 1 -19z m-30 -110 c-3 -8 -6 -5 -6 6 -1 11 2 17 5 13 3 -3 4 -12
1 -19z m-486 -91 c-10 -9 -11 -8 -5 6 3 10 9 15 12 12 3 -3 0 -11 -7 -18z
m1449 -11 c0 -2 -8 -10 -17 -17 -16 -13 -17 -12 -4 4 13 16 21 21 21 13z
m-2433 -88 c-3 -8 -6 -5 -6 6 -1 11 2 17 5 13 3 -3 4 -12 1 -19z m1410 -30
c-3 -8 -6 -5 -6 6 -1 11 2 17 5 13 3 -3 4 -12 1 -19z m-637 -133 c0 -2 -10 -9
-22 -15 -22 -11 -22 -10 -4 4 21 17 26 19 26 11z m1333 -29 c-10 -13 -20 -22
-22 -20 -4 4 29 44 36 44 2 0 -4 -11 -14 -24z m-26 -68 c-3 -7 -5 -2 -5 12 0
14 2 19 5 13 2 -7 2 -19 0 -25z m90 -305 c-2 -16 -4 -5 -4 22 0 28 2 40 4 28
2 -13 2 -35 0 -50z m-2210 -9 c-3 -3 -12 -4 -19 -1 -8 3 -5 6 6 6 11 1 17 -2
13 -5z m-50 -10 c-3 -3 -12 -4 -19 -1 -8 3 -5 6 6 6 11 1 17 -2 13 -5z m1970
-280 c-3 -3 -12 -4 -19 -1 -8 3 -5 6 6 6 11 1 17 -2 13 -5z m-184 -31 c-24 -2
-62 -2 -85 0 -24 2 -5 4 42 4 47 0 66 -2 43 -4z m-536 -45 c-3 -8 -6 -5 -6 6
-1 11 2 17 5 13 3 -3 4 -12 1 -19z m870 -124 c-3 -3 -12 -4 -19 -1 -8 3 -5 6
6 6 11 1 17 -2 13 -5z m-60 -10 c-3 -3 -12 -4 -19 -1 -8 3 -5 6 6 6 11 1 17
-2 13 -5z m-369 -31 c-93 -2 -243 -2 -335 0 -93 1 -17 3 167 3 184 0 260 -2
168 -3z"/>
</g>
</svg>
